# xmcd
#
# Track frame offsets:
# 150
# 17886
# 33527
# 51889
# 68583
# 88097
# 110681
# 130110
# 152504
# 179542
# 195981
# 218310
# 240294
# 241521
#
# Disc length: 3386 seconds
#
#
# Revision: 0
# Processed by: cddbd v1.4PL0 Copyright (c) Steve Scherf et al.
# Submitted via: FreeRIP 2.51 
#
DISCID=a90d380e
DTITLE=Beyonce - Dangerously In Love
DYEAR=2003
DGENRE=R&B
TTITLE0=Crazy In Love
TTITLE1=Naughty Girl
TTITLE2=Baby Boy
TTITLE3=Hip Hop Star
TTITLE4=Be With You
TTITLE5=Me. Myself And I
TTITLE6=Yes
TTITLE7=Signs
TTITLE8=Speechless
TTITLE9=That's How You Like It
TTITLE10=The Closer I Get To You
TTITLE11=Dangerously In Love 2
TTITLE12=Beyonce Interlude
TTITLE13=Gift From Virgo
EXTD=uh super
EXTT0=
EXTT1=
EXTT2=
EXTT3=
EXTT4=
EXTT5=
EXTT6=
EXTT7=
EXTT8=
EXTT9=
EXTT10=
EXTT11=
EXTT12=
EXTT13=
PLAYORDER=
